<svg xmlns="http://www.w3.org/2000/svg" version="1.1" id="Layer_1" x="0" y="0" viewBox="0 0 496.158 496.158" xml:space="preserve" width="512" height="512"><style type="text/css" id="dark-mode-custom-style"/><path d="M248.082.003C111.07.003 0 111.061 0 248.085c0 137 111.07 248.07 248.082 248.07 137.006 0 248.076-111.07 248.076-248.07C496.158 111.061 385.088.003 248.082.003z" data-original="#56B48C" class="active-path" data-old_color="#56B48C" fill="#0144ce"/><path d="M278.767 145.419c-3.126-4.003-7.276-6.006-12.451-6.006-4.591 0-7.716.879-9.375 2.637-1.662 1.758-5.226 6.445-10.693 14.063a120.028 120.028 0 0 1-18.823 20.654c-7.082 6.152-16.53 12.012-28.345 17.578-7.91 3.712-13.429 6.738-16.553 9.082-3.126 2.344-4.688 6.006-4.688 10.986 0 4.298 1.586 8.082 4.761 11.353 3.172 3.273 6.812 4.907 10.913 4.907 8.592 0 25.292-9.521 50.098-28.564V335.41c0 7.814 1.806 13.722 5.42 17.725 3.612 4.003 8.397 6.006 14.355 6.006 13.378 0 20.068-9.814 20.068-29.443V161.972c.001-7.031-1.562-12.547-4.687-16.553z" data-original="#FFFFFF" fill="#fff"/></svg>